<?xml version="1.0" encoding="UTF-8" standalone="no"?>
<svg
   xmlns:dc="http://purl.org/dc/elements/1.1/"
   xmlns:cc="http://creativecommons.org/ns#"
   xmlns:rdf="http://www.w3.org/1999/02/22-rdf-syntax-ns#"
   xmlns:svg="http://www.w3.org/2000/svg"
   xmlns="http://www.w3.org/2000/svg"
   xmlns:sodipodi="http://sodipodi.sourceforge.net/DTD/sodipodi-0.dtd"
   xmlns:inkscape="http://www.inkscape.org/namespaces/inkscape"
   width="243.20331mm"
   height="264.02386mm"
   viewBox="0 0 243.20331 264.02386"
   version="1.1"
   id="svg8"
   inkscape:version="1.0.2 (e86c8708, 2021-01-15)"
   sodipodi:docname="trans-wapuu.svg"
   inkscape:export-filename="/Users/tallulahhh/Desktop/bitmap.png"
   inkscape:export-xdpi="300"
   inkscape:export-ydpi="300">
  <defs
     id="defs2" />
  <sodipodi:namedview
     id="base"
     pagecolor="#ffffff"
     bordercolor="#666666"
     borderopacity="1.0"
     inkscape:pageopacity="0.0"
     inkscape:pageshadow="2"
     inkscape:zoom="1.1995365"
     inkscape:cx="459.5968"
     inkscape:cy="540.62541"
     inkscape:document-units="mm"
     inkscape:current-layer="layer4"
     inkscape:document-rotation="0"
     showgrid="false"
     inkscape:window-width="2209"
     inkscape:window-height="1363"
     inkscape:window-x="0"
     inkscape:window-y="23"
     inkscape:window-maximized="0" />
  <metadata
     id="metadata5">
    <rdf:RDF>
      <cc:Work
         rdf:about="">
        <dc:format>image/svg+xml</dc:format>
        <dc:type
           rdf:resource="http://purl.org/dc/dcmitype/StillImage" />
        <dc:title />
      </cc:Work>
    </rdf:RDF>
  </metadata>
  <g
     inkscape:groupmode="layer"
     id="layer4"
     inkscape:label="egg"
     style="display:inline"
     transform="translate(10.259081,-10.015559)">
    <path
       style="display:inline;opacity:1;mix-blend-mode:normal;fill:#005583;fill-opacity:1;stroke:none;stroke-width:0.264583"
       d="m 4.8342098,53.626402 c -8.038626,9.034762 -8.0048495,20.404343 -8.027533,29.055715 -0.01211,2.65219 -0.5159157,5.686543 0.2763563,8.310153 -0.4701431,3.529639 0.010408,7.370676 0.273973,10.90755 0.537506,9.63797 3.10303599,19.9786 6.018877,29.13397 1.421924,4.46485 2.5451724,7.82767 4.6462554,12.03296 0.67728,1.35572 0.7699764,5.13033 1.7603388,6.2773 1.1263577,1.3044 6.1765267,1.23655 7.7330967,2.2372 3.669242,2.35903 6.706142,4.9308 9.307367,8.37038 5.672667,7.5012 8.521283,15.00634 13.150962,23.14545 1.40679,2.47359 2.886639,6.60351 4.639768,8.86516 1.608137,2.07434 4.898999,4.25918 6.984709,5.82102 5.888831,4.40981 12.458969,7.51041 19.314579,10.11523 4.33573,1.6473 9.299963,3.22332 13.866403,3.984 1.56131,0.26009 5.648336,0.96017 7.194036,0.51012 1.50045,-0.43683 0.8329,-7.29175 0.8329,-8.53132 0,-6.21851 0.276964,-7.57239 0.803939,-14.00056 -0.5506,-1.95077 -2.399573,-8.91669 -2.846463,-10.9299 -1.98516,-8.93736 -4.139848,-15.39679 2.040292,-23.13427 1.44965,-1.81504 3.903431,-3.06078 6.117461,-3.96195 3.532993,-1.43801 7.974773,1.22668 7.974773,1.22668 6.61458,5.55625 7.96195,7.3178 10.61102,10.64296 0.73739,1.09379 3.25832,7.76318 4.654,7.86928 1.76741,0.13441 5.07294,-4.97188 6.14159,-6.11382 3.3819,-3.61474 9.77876,-8.00889 14.35314,-9.83875 5.85787,-2.34315 9.4117,-2.74764 15.64767,-2.29018 2.11217,0.15478 3.94006,0.76048 5.97735,1.33436 0.69585,0.19606 3.48457,1.91965 4.18704,1.50187 0.73845,-0.43947 1.40036,-5.02995 1.58715,-5.78137 0.58526,-2.35188 1.69939,-6.98227 2.04123,-9.37966 1.15464,-8.10048 -0.008,-12.59853 -1.61075,-20.61514 -0.51911,-2.59636 -1.25637,-8.76107 -2.92642,-10.89176 -2.24155,-2.85935 -6.85174,-5.78265 -9.67669,-8.04272 -9.36387,-7.491416 -19.75559,-12.84996 -32.09285,-11.67495 -12.44203,1.18481 -28.87671,9.891397 -39.89846,0.174834 -2.45321,-2.16218 -0.611907,-4.478666 -0.322187,-7.471626 3.062206,-7.412742 12.433517,-12.490801 19.087517,-16.374361 -1.48669,-1.12628 -9.723776,-0.236431 -11.567136,-0.605101 -2.1582,-0.43159 -3.956717,-0.93457 -5.977347,-1.82801 -0.84799,-0.37486 -3.100682,-2.595984 -4.061652,-2.218074 -1.85261,0.72853 -5.907861,5.762225 -7.494301,7.023945 -5.35834,4.26162 -16.005678,8.075078 -19.694688,7.11097 -7.121041,-1.766329 -7.583805,-12.752378 -4.541626,-20.290648 0.664104,-1.645576 5.662031,-9.214475 4.581208,-10.925985 -2.093962,-0.429778 -12.188629,-1.73618 -13.03886,-1.277473 -1.082146,0.67402 -2.504579,3.048039 -3.427446,3.979589 -2.35929,2.3809 -4.201636,3.056871 -7.493847,3.375481 -3.6703,0.35517 -5.646009,0.174662 -8.984653,-1.405538 -1.433592,-0.67855 -6.336389,-4.18647 -7.85179,-4.39491 -1.020233,-0.14031 -2.50524,2.455417 -3.316215,2.981677 -2.3657432,1.832816 -5.936753,3.741714 -6.9540872,5.990222 z"
       id="path132"
       sodipodi:nodetypes="cccccccccccccssscccsccccccccccccscccccccccscccccccc" />
    <path
       style="fill:#01a1d1;fill-opacity:1;stroke:none;stroke-width:0.27962199999999998px;stroke-linecap:butt;stroke-linejoin:miter;stroke-opacity:1;opacity:0.66"
       d="m 7.8664239,147.19424 c 0,0 52.1125661,62.29662 110.0264961,6.18337 57.91393,-56.113254 -12.52428,-99.646073 -12.52428,-99.646073 0,0 -29.727231,-12.167846 -52.318894,-12.920558 -22.59166,-0.752712 -38.378605,-3.010849 -47.0886429,7.276212 -8.710038,10.287061 -12.5206796,23.08316 -10.6153589,52.689819 1.9053209,29.60666 12.5206797,46.41723 12.5206797,46.41723 z"
       id="path1104" />
  </g>
  <g
     inkscape:groupmode="layer"
     id="layer3"
     inkscape:label="logo"
     style="display:inline"
     transform="translate(10.259081,-10.015559)">
    <path
       style="fill:#871c76;fill-opacity:1;stroke:none;stroke-width:0.264583px;stroke-linecap:butt;stroke-linejoin:miter;stroke-opacity:1"
       d="m 30.708668,136.11697 c 0,0 0.956324,-27.94595 14.344878,-36.765398 13.388554,-8.819446 23.589358,-15.088687 44.097222,-7.331829 20.507862,7.756861 26.033302,21.357937 28.583502,32.833837 2.5502,11.4759 2.16389,27.09994 -5.5592,36.39552 -7.7231,9.29558 -8.25439,22.36535 -19.199001,24.49052 -10.944611,2.12517 -21.995481,4.3566 -36.127843,-3.8253 -14.132364,-8.18189 -17.851405,-15.61998 -19.870314,-20.18909 -2.018911,-4.56911 -6.694278,-18.17018 -6.269244,-25.60826 z"
       id="path219" />
    <path
       style="display:inline;opacity:1;mix-blend-mode:normal;fill:#f9f9f9;stroke:none;stroke-width:0.264583"
       d="m 92.194389,187.98418 -0.908512,-3.96662 c -0.714904,0.0661 -4.098393,0.47545 -4.779695,0.16219 -0.862806,-0.39661 -1.242483,-1.52268 -1.71106,-2.27886 -1.330325,-2.14656 -2.745317,-4.36853 -3.892286,-6.61458 -3.543564,-6.93897 -6.161351,-14.2928 -8.533341,-21.69584 -1.010179,-3.15251 -2.779448,-9.78958 -2.779448,-9.78958 0,0 3.414977,2.71515 4.951677,4.03542 4.1783,3.58987 9.718145,8.31871 14.627489,11.575 2.088582,-4.21058 5.106987,-7.12259 8.73125,-9.26042 -4.277167,-3.93668 -9.210675,-8.54763 -13.028083,-12.07876 -7.844895,-7.2562 -15.812558,-14.96245 -22.426083,-23.37541 1.675342,-0.85513 3.828786,-2.34264 4.830498,-3.96896 0.962554,-1.56281 -0.215635,-3.0703 -1.920081,-2.27671 -6.199452,2.88655 -13.247317,7.21484 -18.661485,11.39658 -0.968296,0.74771 -2.13659,4.00791 -0.09514,4.2336 1.404937,0.15531 3.124279,-1.32424 4.469129,-1.71159 4.897401,6.5196 7.602183,9.47503 13.245571,16.13958 0,0 2.019564,8.30501 3.041914,11.90625 2.049198,7.21837 4.917281,14.00334 7.789598,20.90209 -12.691268,-9.12337 -23.557811,-19.99271 -32.468211,-32.80834 -1.120166,-1.61105 -2.771334,-5.21622 -3.690483,-7.30314 0,0 5.268485,-4.35228 2.119308,-6.43746 -0.867383,-0.57441 -2.272109,0.26405 -2.99167,0.73607 -2.301822,1.93447 -3.502526,3.59849 -5.725185,5.91498 0.683651,-4.24737 1.453757,-7.87194 2.45811,-11.69586 3.96195,-15.08451 16.221044,-27.720827 31.566881,-28.764048 1.505994,-0.184796 8.128765,-0.448976 14.079234,0.874411 -4.069027,0.944033 -7.985086,5.451353 -6.069503,9.633387 3.25755,7.1111 12.212637,8.8847 16.949737,14.81666 5.495904,6.34785 6.788535,12.02657 8.575314,22.53953 0.360837,2.33177 1.638397,10.9038 1.638397,10.9038 0.86201,0.97261 3.78063,1.52454 5.04349,2.01084 -0.8235,-7.41836 -1.30975,-11.67705 -2.15345,-16.59334 -2.28441,-13.2895 -3.79386,-26.04532 -10.546553,-37.910827 13.687693,8.448167 21.901683,24.065967 22.480063,39.952087 0.1524,4.18518 -0.50827,8.34337 -1.31366,12.43541 -0.322,1.63672 -1.58724,5.82082 -2.40956,7.14375 0.13071,1.34779 2.19604,2.33839 2.93899,3.43958 2.15027,-2.12751 3.88197,-7.18978 4.68471,-10.05416 2.4892,-8.88074 2.00872,-18.12634 -0.30056,-26.9875 -2.0664,-7.92877 -5.98144,-15.31239 -11.56891,-21.34264 -1.66423,-1.79607 -4.76964,-5.543604 -7.10274,-6.475969 C 99.745133,94.707452 98.311096,94.91859 96.577546,94.842544 92.237118,94.320364 87.939147,92.291914 85.60607,90.354841 84.949903,89.493887 84.768928,88.376467 83.803728,87.845186 81.600014,86.631863 75.729439,86.397841 73.294214,86.3861 65.37841,86.34793 57.903931,87.689129 51.069214,92.002983 26.882303,107.26923 23.715056,145.63419 39.138676,168.09758 c 8.758766,12.75662 22.795653,21.16005 38.388606,21.75034 4.137819,0.15663 10.724022,-0.37625 14.667107,-1.86374 m 1.737324,-91.014544 -0.264583,0.264583 0.264583,-0.264583 M 32.548382,140.36131 c 8.751755,21.02088 28.816034,33.06048 46.831248,44.97916 v 0.26459 c -19.46222,0 -36.898976,-11.15193 -43.534567,-29.89792 -1.957078,-5.31297 -3.205447,-10.62649 -3.296681,-15.34583 z"
       id="path164"
       sodipodi:nodetypes="cccccccccccccccsccsccscccscccccscccscccccsccccsccsccccccccc" />
  </g>
  <g
     inkscape:groupmode="layer"
     id="layer2"
     inkscape:label="colo(u)rs"
     style="display:inline"
     transform="translate(10.259081,-10.015559)">
    <path
       style="display:inline;opacity:1;mix-blend-mode:normal;fill:#8bd3fe;fill-opacity:1;stroke:none;stroke-width:0.264583"
       d="m 168.19418,197.38523 c -3.60072,2.20372 -13.26863,5.71571 -16.36929,8.45309 -3.07525,2.71489 -5.2097,9.22544 -7.84337,12.47135 -5.53693,6.82387 -12.77353,12.42293 -19.89822,17.54076 0.76703,2.2561 5.14732,5.87567 6.64936,7.68383 0.49636,0.59743 2.42228,3.5761 3.33774,3.43984 2.51911,-2.78543 1.737,-2.13508 2.51911,-2.78543 2.27224,-1.88992 4.15067,-3.42306 6.24193,-5.51353 7.44485,-7.44194 15.05906,-16.21152 19.91337,-25.61614 1.17184,-2.27039 5.89837,-13.11022 5.44937,-15.67377 z M 36.174563,175.80119 c 1.494129,1.80314 2.988257,5.3168 4.034075,7.40833 1.855523,3.71105 3.764905,7.68232 4.14536,11.90625 0.567227,6.29754 -1.586045,9.19083 -4.4763,10.06925 -2.270363,0.69004 -6.10616,-0.7919 -8.201051,-1.67772 -5.400331,-2.28336 -10.376138,-6.67755 -15.08125,-9.97902 l -0.529166,-1.58751 c 7.251435,-2.46909 13.357991,-9.55728 17.991665,-15.08125 z m 88.106247,10.84791 c -2.68023,9.26043 -21.28253,9.58454 -29.938912,8.46667 0,4.48972 0.01957,8.98605 0.04125,13.49375 0.0119,2.49317 0.39132,7.33664 2.17276,9.23264 3.185585,3.3909 12.084942,3.1817 15.554062,1.02473 9.7486,-6.0613 10.04199,-13.78029 11.60727,-20.31153 z M 121.37039,63.882428 c 5.8936,0 12.83176,0.60643 18.52083,2.22965 1.50628,0.42995 2.2397,-0.187853 3.32476,1.018117 1.00489,1.11628 1.59596,0.756973 0.11085,1.131353 -1.86981,0.47123 -3.90868,-1.21152 -5.81686,-1.4687 1.34594,2.83237 3.3581,6.9006 4.68075,9.78958 2.04285,4.46141 2.72812,11.539277 2.72759,16.404177 8.53281,2.45797 15.24847,9.015675 21.69583,14.772745 2.41141,2.15344 7.24852,6.1296 7.24852,6.1296 1.32398,2.10503 -0.93583,1.73831 -2.7506,1.32265 0.30691,7.13026 2.68869,15.49506 2.37093,22.75417 -0.16642,3.79809 -1.20095,7.64567 -1.9476,11.37708 -0.36857,1.8423 -1.27132,3.94547 -1.31948,5.80946 -0.0632,2.44316 6.07192,6.58681 6.07192,6.58681 -0.67098,0.79481 -1.12289,0.42703 -2.00077,-0.12066 -2.58287,-1.61184 -4.47887,-3.77269 -7.40834,-4.96596 -7.96581,-3.24538 -18.08559,-2.76463 -25.92916,0.59425 -5.06968,2.17091 -9.50701,5.13609 -12.7979,9.5586 -1.0078,1.35414 -4.92645,5.31612 -5.14076,7.04756 -0.21563,1.74122 1.52707,5.52189 1.93982,7.22131 0.88186,3.63061 1.4668,5.95392 1.36705,9.70015 -0.17753,6.65507 -2.97965,15.63598 -4.4592,22.03122 7.01701,0 16.68816,-1.88381 23.43239,-3.80892 9.48716,-2.70774 21.28918,-7.91433 28.66444,-14.5522 21.98025,-19.78236 25.45841,-56.5168 24.25509,-83.99537 -0.62839,-14.354172 -3.47211,-30.904725 -8.44257,-44.461185 -1.85737,-5.06544 -5.12474,-11.493198 -8.94215,-15.416175 -1.73117,-1.779058 -6.36112,-3.756324 -8.46905,-5.069186 -3.5351,-2.201942 -6.1217,-4.031562 -9.30887,-6.706553 -3.79412,-3.184498 -6.93688,-5.750017 -3.84205,-10.896904 -3.56764,-1.978316 -7.01437,-5.015124 -10.84791,-6.462072 -10.22906,-3.860845 -25.68231,1.785001 -25.1251,14.399573 0.20823,4.711409 4.39764,8.988452 3.32502,13.758334 -0.85037,3.781954 -10.0224,10.765885 -13.25535,12.565845 z M 53.637062,50.124099 c -2.371725,4.507446 -5.755481,12.280109 -4.300537,17.462499 1.046956,3.72904 3.659649,9.074915 9.592203,7.49671 1.514798,-0.402973 5.488498,-1.246102 6.920159,-1.880832 -1.535377,-1.01944 -5.578986,-2.553328 -6.833111,-4.032348 -2.557462,-3.01519 -3.778249,-7.25884 -4.244974,-11.10853 z"
       id="path68"
       sodipodi:nodetypes="ccccccccccccccccccccccccccccccccccccscccccccssccccccsccsccccccsccccc" />
    <path
       style="display:inline;opacity:1;mix-blend-mode:normal;fill:#ffc7f5;stroke:none;stroke-width:0.264583"
       d="m 20.034983,45.097019 c -0.315065,-6.201146 8.937863,-10.408629 14.2875,-9.740583 1.682221,0.210079 6.038482,3.318319 7.479138,4.117255 C 38.634815,23.020175 22.083572,29.425854 18.0736,34.850394 c -1.797103,2.431018 -3.370388,8.937163 1.961383,10.246625 M 157.8829,31.603269 c 2.57228,4.112471 9.02705,11.037993 12.96458,13.764869 7.88194,5.458433 17.57707,10.704591 27.51667,10.024083 4.33572,-0.297127 9.13262,-0.724694 13.00956,-2.546879 6.34047,-2.980267 17.52626,-15.949374 19.00502,-23.094156 L 158.14747,28.428264 M 70.5704,247.50326 c -0.544249,6.66195 -11.410686,13.70595 -17.727083,13.75834 0.914929,1.24381 7.31467,3.14378 8.731249,3.61606 4.247356,1.41579 8.534665,1.70392 12.964584,2.27938 20.7391,2.69373 43.25858,-8.49391 59.53125,-20.18294 -0.94933,-1.85976 -7.67464,-11.15701 -9.9871,-11.12367 0,0 -3.66319,2.69215 -5.18772,3.56686 -4.22011,2.42068 -7.75186,4.68025 -12.34185,6.31538 -7.78536,2.77336 -16.54334,4.90008 -24.87083,4.10686 -3.83699,-0.36539 -7.36362,-1.7825 -11.1125,-2.33627 z m 53.01959,-63.49999 c 0.31142,1.66264 1.23693,3.18531 0.41884,4.75218 -5.47905,11.81292 -23.72545,10.34914 -29.201807,6.60135 -1.1848,-1.05966 -0.72892,-4.57544 -0.97446,-6.06187 -0.88344,-5.34617 -1.858163,-10.55846 -2.889243,-15.875 l 0.26458,-0.79375 c 5.86608,1.3933 20.57894,0.45633 24.39265,-7.59838 0.77073,-1.62772 2.81099,3.57373 2.81099,3.57373 z M 24.268317,158.33869 c 5.05407,4.80351 7.403888,11.88243 11.377083,17.4625 l -0.529167,1.32291 c 1.175143,6.86016 -10.885661,16.30792 -18.25625,14.52404 -1.49135,0.0492 -1.959953,-1.66291 -2.910204,-2.61779 -3.412331,-3.42874 -8.819666,-10.37616 -10.318962,-15.08125 7.588535,0.69427 15.83428,-1.74678 18.720911,-10.05417 0.52361,-1.5068 0.07342,-4.57438 0.329089,-6.08541 z M 77.97873,65.469935 C 75.02326,68.035444 71.253229,72.110149 67.238885,71.494241 54.699157,76.52692 50.160356,54.442329 55.753729,49.065766 c 0.671248,-3.950758 3.95526,-7.791262 6.624906,-10.583331 7.341394,-7.677414 16.335635,-12.476956 26.183435,-16.404166 3.52848,-1.407107 9.15114,-2.598896 12.96458,-2.910417 -1.51712,2.842154 -5.769767,6.804449 -8.202087,8.884576 -5.56286,4.757288 -9.704913,9.557253 -14.053603,15.457091 -1.7571,2.38416 -3.91266,4.853781 -4.90511,7.672916 -1.07236,3.045619 -3.0017,9.851231 0.184937,12.320588 1.14486,0.887409 2.114293,-0.009 3.427943,0.379412 z m 29.89792,3.175 c 1.00833,1.796256 3.19008,3.046676 4.45664,4.762496 3.48933,4.72679 4.57094,11.1559 4.53919,16.93334 4.23969,-0.0352 8.43571,-1.39092 12.7,-1.30863 5.36364,0.10345 10.4947,1.9767 15.61042,3.16071 0.66252,-2.78236 0.26802,-7.55147 -0.32041,-10.31875 -0.86677,-4.07617 -3.75497,-12.26291 -7.17391,-14.888633 -1.74096,-1.337204 -5.21309,-0.78687 -7.32235,-1.060978 -7.69726,-0.999596 -14.95769,-0.420688 -22.48958,1.132945 z M 95.253837,53.533873 c 0.84958,-4.144169 -1.315475,-8.162012 -1.315475,-12.327347 0,-7.967557 5.249901,-18.877167 12.879948,-22.839369 2.55773,-1.328276 7.77029,-1.51552 10.58334,-1.58443 8.33623,-0.204203 20.32035,0.905818 28.50047,2.109362 l -0.55153,1.304284 c -11.10189,-0.55321 -23.35842,5.853583 -21.74737,16.169396 0.70696,4.525777 6.04079,10.948082 4.03578,15.591784 -5.71473,13.235251 -26.80503,13.05809 -38.54777,11.541763 z"
       id="path84"
       sodipodi:nodetypes="cccccscsccccccccccscccccccccccccccsccccccccccccccccccsscccccccccccccccc" />
    <path
       style="display:inline;opacity:1;mix-blend-mode:normal;fill:#ffffff;stroke:none;stroke-width:0.264583"
       d="m 31.412067,34.365252 c -3.912526,0.61587 -13.2724,4.998614 -12.082834,10.201593 0.921518,4.030609 9.770375,5.397182 12.876584,4.911936 2.277268,-0.3556 5.501746,-1.712384 6.974946,-3.612727 4.448969,-5.739368 -1.656292,-12.462933 -7.768696,-11.500802 m 6.085416,188.647918 c -7.153275,1.12659 -12.821708,11.24823 -9.98564,17.08176 3.820319,7.85786 15.684236,16.72193 23.214807,20.69545 2.596885,1.37027 5.954712,2.47253 8.995833,1.93596 4.342077,-0.76571 14.254427,-8.01397 13.121217,-13.60039 -0.20717,-1.02155 -3.3147,-1.94071 -4.125383,-2.35187 -2.234936,-1.13348 -4.300538,-4.12353 -6.085417,-5.88645 -7.186348,-7.09798 -12.640733,-19.84191 -25.135417,-17.87446 z M 108.51388,17.148073 c -2.37701,0.187876 -2.83934,-1.059935 -4.95628,0.09382 -3.04932,1.661848 -9.20433,8.0486 -11.82053,10.351586 -6.1222,5.389298 -11.15404,10.863263 -15.91204,17.503537 -2.9464,4.111625 -6.790801,11.365174 -4.68631,16.667694 1.80155,4.53893 6.78948,3.540917 8.57886,1.059387 0.64399,-0.89323 1.29037,-2.21721 2.49846,-2.4167 2.75643,-0.45588 5.48005,2.289966 8.46269,2.033586 1.846471,-0.652684 4.168264,-2.119896 6.22618,-5.967143 3.22421,-5.612876 -0.0907,-14.134549 0.72946,-20.372657 0.66039,-5.021395 2.74558,-9.440439 6.08462,-13.228955 4.79489,-5.724155 8.39902,-5.034084 9.63938,-6.655787 z m 8.88777,72.928107 c -6.07139,0.48313 -11.88588,2.99747 -17.99167,3.41604 -4.66328,0.31962 -14.845233,-2.386013 -13.634503,-8.972283 1.22767,-6.67782 10.859553,-12.97676 16.544923,-15.34266 1.62507,-0.67628 4.55718,-2.38019 6.35,-1.84679 3.27793,0.97472 6.38519,7.594863 7.55015,10.574863 1.35441,3.46392 1.5211,8.56324 1.71027,12.17083 z M 91.2079,173.15535 c 3.53245,0.62971 8.15843,2.55005 11.90625,2.64186 1.92881,0.0474 3.70231,-0.13202 5.55625,-0.6813 4.23254,-1.25439 8.30818,-4.80033 6.73391,-9.36889 -0.57679,-1.67429 -2.11243,-3.16495 -3.22924,-4.49792 -5.27877,-8.18781 -14.603943,-10.609 -19.520423,-2.64583 -0.95012,1.53881 -1.873517,3.25702 -2.127257,5.02708 -0.46037,3.21363 -0.100007,6.34603 0.151343,9.525 z M 9.9808173,151.84713 c -7.4748003,1.34752 -11.9453136,11.06117 -9.87675863,17.33947 0.49919696,1.515 1.33924103,4.42886 2.78936403,5.28426 1.384089,0.81677 6.6590866,0.18256 8.1457273,-0.0683 6.198156,-1.04484 12.896737,-7.62641 12.086722,-16.06391 -1.32078,-3.96619 -8.663542,-7.20431 -12.615888,-6.49152 z"
       id="path116"
       sodipodi:nodetypes="cccccccccccccsccccccccccccccccccccccccccscssscccs" />
  </g>
  <g
     inkscape:label="outlines"
     inkscape:groupmode="layer"
     id="layer1"
     style="display:inline;opacity:1;mix-blend-mode:normal"
     transform="translate(10.259081,-10.015559)">
    <path
       style="opacity:1;fill:#000000;stroke-width:0.264583"
       d="m 75.69654,273.88168 c -21.9454,-1.95793 -44.660029,-15.00527 -51.794432,-29.75084 -1.652907,-3.41627 -2.076738,-5.23552 -2.06494,-8.86354 0.01191,-3.66398 0.505219,-5.83294 2.045996,-8.99584 3.37806,-6.93445 11.237286,-10.29061 19.892576,-8.49482 4.0608,0.84253 8.20682,2.72084 11.37709,5.15426 3.89187,2.98732 5.95945,5.27271 9.30771,10.28826 2.62035,3.92517 4.78355,6.04029 7.75791,7.58546 2.66122,1.38249 4.81965,2.07736 7.89094,2.54032 13.41369,2.02196 31.82482,-4.4587 46.73705,-16.4513 3.88157,-3.12161 9.57475,-8.75652 9.21278,-9.1185 -0.18705,-0.18704 -0.9267,-0.17939 -2.35719,0.0244 -1.14654,0.16333 -4.02003,0.36868 -6.38553,0.45634 l -4.30092,0.15939 -0.91051,1.11115 c -1.3359,1.63029 -4.45706,3.91324 -7.02412,5.13774 -2.99147,1.42695 -5.86095,2.1356 -9.39789,2.32092 -7.53005,0.39455 -13.21216,-0.46621 -15.87486,-6.20176 -0.52407,-1.12886 -1.04709,-2.2297 -1.16228,-2.4463 -0.21922,-0.41225 -0.46946,-0.47019 -5.18268,-1.20008 -10.42618,-1.61458 -22.77158,-6.33727 -30.88484,-11.81488 -2.27699,-1.53729 -2.19199,-1.54871 -3.12186,0.41936 -4.14965,8.78275 -14.91143,6.82372 -27.728891,-1.71049 -4.423372,-2.94521 -7.077278,-5.14493 -11.301069,-9.36701 -8.498489,-8.49506 -14.548945,-17.87212 -16.164621,-25.05209 -0.589601,-2.62015 -0.593172,-7.70489 -0.0071,-10.09978 1.393983,-5.69623 4.5226368,-10.62917 7.5381257,-12.41325 1.2527203,-0.74116 0.8800341,0.002 0.7999981,-0.18213 C -7.4597125,122.37446 -13.733731,94.3824 -8.1901363,67.327337 -4.8205185,51.394164 0.20545394,45.87142 10.73557,40.340374 c 0.554432,-2.770571 1.858199,-6.337077 4.001819,-9.207027 2.525526,-3.38127 8.780618,-5.8935 13.828051,-6.58821 8.08229,-0.389844 15.853162,3.769341 17.193517,11.09403 0.34219,0.68239 0.60218,0.82457 1.85324,1.01346 0.80036,0.12084 2.347133,0.44512 4.084023,0.72062 l 3.15798,0.50091 3.85348,-3.77431 c 2.11941,-2.07587 4.98457,-4.65088 6.36701,-5.72224 13.0828,-10.13883 28.71035,-16.16189 46.83125,-18.04936 4.55134,-0.47407 15.54552,-0.39494 19.66743,0.14154 11.13183,1.44887 21.59168,5.25952 30.33882,11.05282 l 3.3073,2.19044 30.55937,0.16068 c 27.39641,0.14405 30.69665,0.20583 31.88566,0.59685 6.90075,2.26944 7.05684,11.18458 0.35073,20.03213 -3.3139,4.37211 -7.92863,8.05596 -13.58326,10.84324 -6.661,3.28334 -10.59291,4.29534 -17.00883,4.37775 -2.36986,0.0304 -4.37649,0.12301 -4.45918,0.2057 -0.0827,0.0827 0.44697,1.67591 1.17703,3.54048 4.72888,12.07748 7.68607,27.20698 8.80526,45.049333 0.40354,6.43327 0.168,23.58397 -0.39901,29.05335 -3.00465,28.98299 -11.57309,49.72451 -25.53637,61.81559 -2.55259,2.21035 -2.56128,2.22204 -3.28725,4.42944 -3.8613,11.7407 -11.43863,24.13675 -21.00332,34.36012 -10.81858,11.56363 -23.05476,20.42155 -37.50741,27.1521 -8.35173,3.88937 -18.73957,7.17522 -25.78908,8.15754 -3.81425,0.5315 -10.14995,0.7135 -13.7273,0.39433 z m 12.22855,-8.4649 c 9.16916,-1.29736 22.34714,-6.14289 32.32955,-11.88755 8.77315,-5.04876 15.54551,-10.19662 22.96721,-17.45803 7.95245,-7.78068 14.32653,-16.37066 18.55845,-25.01013 1.57149,-3.2082 3.64875,-8.08658 3.50324,-8.22726 -0.0352,-0.0341 -1.13561,0.53878 -2.44529,1.27298 -1.30969,0.73421 -4.04813,2.08604 -6.08542,3.00408 l -3.70417,1.66916 -1.71979,2.73799 c -4.67869,7.4487 -9.15875,12.81212 -15.47812,18.53004 -20.90985,18.91974 -48.88973,26.82936 -66.20457,18.71536 -4.89013,-2.2916 -8.5399,-5.59855 -12.03905,-10.90824 -3.36825,-5.11105 -6.9698,-8.51972 -11.14687,-10.54989 -6.72267,-3.26739 -13.110836,-1.9735 -15.446673,3.12864 -2.512086,5.48712 -0.661307,10.90962 5.991333,17.55371 4.57045,4.56457 9.63925,8.06024 16.29582,11.23833 7.66561,3.65983 15.82258,5.88425 24.07709,6.56585 1.94956,0.16098 8.37324,-0.0674 10.54726,-0.37504 z m 20.37431,-47.74636 c 2.67028,-0.69552 4.40675,-1.71193 6.53946,-3.82776 2.23727,-2.21957 3.63477,-4.48834 4.59545,-7.4605 3.37404,-10.43861 3.79009,-16.02547 1.84303,-24.74885 -0.91819,-4.11374 -1.5086,-5.84207 -3.14436,-9.20456 -2.59329,-5.33081 -7.02237,-11.27619 -10.66503,-14.3162 -4.92193,-4.10764 -8.76975,-4.3334 -12.28379,-0.72071 -2.33499,2.40053 -3.28776,5.54522 -3.03274,10.00983 0.19084,3.34126 0.63681,5.86276 2.40997,13.62604 2.0508,8.97885 2.05111,8.98181 2.01894,19.46814 -0.0218,7.11958 0.0611,9.75013 0.35629,11.29266 0.68744,3.59296 1.93098,5.20691 4.64887,6.03366 1.1569,0.35191 5.12451,0.26223 6.71391,-0.15175 z m 25.41181,-8.19096 c 8.30797,-1.16688 16.12861,-3.63129 24.01294,-7.56686 10.90454,-5.44316 17.59456,-11.1266 23.02654,-19.56197 7.8095,-12.12745 12.49322,-28.98891 13.96405,-50.27084 0.34518,-4.99448 0.34431,-17.77717 -0.002,-23.15556 -0.8742,-13.593553 -2.89171,-25.758343 -5.98894,-36.111103 -1.88158,-6.28933 -7.91131,-19.43656 -9.75946,-21.27952 -0.44851,-0.44725 -2.35546,-1.68106 -4.23766,-2.74179 -7.51641,-4.23592 -16.5652,-11.60561 -18.59384,-15.14355 -1.05717,-1.8437 -1.12573,-3.46092 -0.20426,-4.81878 l 0.63139,-0.93039 -2.08991,-1.24317 c -6.96044,-4.14037 -15.46034,-6.96156 -24.44057,-8.11203 -3.89614,-0.49914 -14.22335,-0.42606 -18.91771,0.13387 -22.64568,2.70111 -41.28235,12.81892 -53.28434,28.92795 -7.41898,9.95773 -9.12906,17.40441 -5.28593,23.01799 0.52055,0.76035 1.49954,1.75333 2.17555,2.20662 1.13565,0.7615 1.35986,0.81462 2.94889,0.69864 3.50506,-0.25582 10.8335,-3.23121 15.37649,-6.24294 2.6338,-1.74605 5.65622,-4.60743 6.9808,-6.60883 0.60716,-0.9174 1.37896,-1.73489 1.81044,-1.91759 0.68541,-0.29024 0.9904,-0.19941 3.43958,1.02434 5.00564,2.50108 8.6386,3.33495 14.461443,3.31929 5.366487,-0.0144 9.704907,-0.77692 17.282937,-3.03755 3.55674,-1.06103 3.68154,-1.07915 4.55711,-0.66162 0.93357,0.44519 1.35556,1.3271 1.10093,2.3008 -0.1267,0.4845 -0.002,0.52513 1.62389,0.52765 3.07514,0.005 8.00172,0.52804 11.41846,1.21279 4.1758,0.83688 8.71392,2.32257 9.32657,3.05332 0.66093,0.78835 0.59616,2.20019 -0.1323,2.8838 -0.7683,0.72102 -1.76466,0.6116 -5.62239,-0.61747 -13.45064,-4.28533 -31.25176,-2.20729 -42.77126,4.99297 -3.92575,2.45379 -7.44463,5.88846 -8.88029,8.66777 -1.04675,2.02642 -1.02164,4.21843 0.0662,5.77564 1.71171,2.45033 4.94223,3.93054 8.98745,4.11802 3.123913,0.14478 5.41506,-0.19245 13.90154,-2.04612 14.25513,-3.11368 20.69013,-3.50176 28.00956,-1.68919 9.87568,2.4456 16.93291,6.97284 32.1167,20.602943 5.09183,4.57082 5.21491,4.70575 5.21491,5.71726 0,1.45819 -0.76326,2.17801 -2.16745,2.0441 -1.04934,-0.10007 -1.05717,-0.0941 -0.91778,0.70223 0.0773,0.44175 0.37806,2.17239 0.66828,3.84588 1.7831,10.28172 1.3619,21.5946 -1.17718,31.61771 -0.6253,2.46837 -0.63983,2.66358 -0.21664,2.91042 2.59028,1.51083 5.39827,4.39314 5.39827,5.54113 0,1.0426 -0.97165,1.99949 -2.03033,1.99949 -0.78006,0 -1.23259,-0.27682 -2.75155,-1.68314 -2.95196,-2.73307 -6.81051,-4.43199 -12.15145,-5.35029 -1.9219,-0.33045 -3.57227,-0.40177 -7.01146,-0.30299 -3.90191,0.11208 -4.91118,0.2365 -7.61669,0.93901 -3.40843,0.88503 -7.58613,2.74129 -10.26728,4.56203 -3.47223,2.35794 -7.30248,6.53744 -9.60882,10.48496 l -0.95707,1.63812 0.79511,2.83165 c 2.32338,8.27429 2.80901,15.58764 1.4661,22.07852 -0.51953,2.51111 -2.43818,9.6326 -2.96522,11.00603 -0.15828,0.41249 0.0985,0.43373 3.22328,0.26669 1.86739,-0.0998 4.59618,-0.35019 6.06397,-0.55634 z M 79.77892,54.441027 c -1.18055,-0.2531 -1.75223,-0.54266 -2.3151,-1.17263 -2.30393,-2.57854 1.05567,-5.91592 7.23989,-7.19202 1.35504,-0.27961 2.95366,-0.50995 3.5525,-0.51186 3.66006,-0.0117 3.20544,4.23794 -0.77867,7.27855 -2.62446,2.00295 -4.24276,2.33885 -7.69862,1.59796 z m -16.95318,-0.25916 c -0.43656,-0.19487 -1.14333,-0.72587 -1.5706,-1.18 -0.63859,-0.67875 -0.79734,-1.1091 -0.89202,-2.41805 -0.0993,-1.37326 -0.023,-1.73164 0.5548,-2.60475 0.89564,-1.3534 2.26444,-1.98548 3.94915,-1.8236 1.63579,0.15718 2.54931,0.81026 3.34099,2.38849 0.47716,0.95123 0.58009,1.47079 0.44719,2.25738 -0.47924,2.83663 -3.33626,4.49341 -5.82951,3.38053 z m 49.60952,-11.81411 c -1.6011,-0.67326 -2.64597,-2.25584 -2.64597,-4.0076 0,-3.96691 5.08966,-5.69331 7.49346,-2.54176 2.02855,2.65956 0.33892,6.50252 -2.9632,6.73963 -0.67264,0.0483 -1.52057,-0.0373 -1.88429,-0.19027 z M 90.73966,203.71573 c 0.27502,-12.27319 0.17988,-13.36012 -1.97051,-22.51276 -0.837742,-5.55214 -2.354235,-12.07581 -1.85418,-17.05422 0.337205,-2.73209 1.265348,-4.61031 2.31142,-6.66896 1.681859,-2.92515 4.20323,-6.0224 6.62184,-7.26411 2.28083,-1.16128 3.756663,-1.31871 6.98176,-0.74475 3.88082,0.69065 9.03242,4.11756 12.13922,8.07518 2.47913,2.68594 4.63443,5.72092 6.33386,8.52991 l 1.63891,2.7288 1.39552,-1.95131 c 3.92521,-5.48849 9.90038,-10.11925 16.34485,-12.66727 4.23134,-1.673 7.46124,-2.28517 12.93062,-2.45078 5.10486,-0.15458 8.06431,0.15777 11.90708,1.2567 1.01419,0.29003 1.89503,0.41351 2.02472,0.28381 0.3075,-0.30749 1.66931,-7.1063 2.09302,-10.44932 0.49982,-3.9435 0.42152,-13.81957 -0.14184,-17.89061 -0.53101,-3.83719 -1.46027,-8.15735 -2.45807,-11.42765 l -0.70161,-2.29952 -3.25898,-2.82617 c -10.80766,-9.372373 -17.36478,-13.350353 -25.32161,-15.361783 -6.80657,-1.72065 -11.93838,-1.36075 -28.09868,1.97056 -6.33659,1.30623 -6.36007,1.30891 -11.11251,1.26573 -5.618476,0.196333 -12.86881,-2.28294 -15.16984,-6.99082 -1.13307,-2.883676 -0.773019,-6.810262 0.82097,-9.57409 2.37405,-3.97354 6.95589,-7.99867 12.57666,-11.04857 l 1.92193,-1.04286 -2.24198,-0.17234 c -3.90184,-0.29991 -7.79251,-1.28656 -11.28958,-2.86296 l -1.74017,-0.78443 -2.75775,2.73563 c -2.92764,2.90416 -5.76673,4.95403 -9.80441,7.07895 -7.00422,3.68613 -12.8663,4.9015 -16.69033,3.46037 -5.50295,-3.362313 -8.00298,-8.976289 -7.07802,-14.90333 0.45011,-2.70266 1.90165,-6.98932 3.46678,-10.23808 1.44761,-3.0048 2.42747,-5.56573 2.212,-5.7812 -0.074,-0.074 -1.05654,-0.28757 -2.18349,-0.47468 -1.12696,-0.18711 -2.76339,-0.46356 -3.63652,-0.61432 -0.87312,-0.15077 -2.027,-0.27481 -2.56417,-0.27565 -0.92644,-0.001 -1.02128,0.0822 -1.84397,1.62569 -1.33567,2.50597 -3.56317,4.1032 -7.36902,5.28396 -2.539938,0.78801 -7.862191,0.86326 -10.580129,0.14958 -2.342189,-0.61501 -5.206075,-2.05561 -6.699045,-3.36977 l -1.237799,-1.08956 -1.692006,0.82429 c -3.900369,1.90013 -6.583072,4.14203 -9.039833,7.55448 -3.636418,5.051 -5.536342,11.46487 -6.701072,22.62188 -0.262171,2.51134 -0.416082,12.43542 -0.192859,12.43542 0.422546,0 4.201808,-1.919501 5.4840747,-2.4828 0,0 0.977029,-3.497166 1.8138965,-4.950243 0,0 0.06817,-0.29382 2.1219162,-1.32127 1.9269876,-0.96403 6.2851896,-0.501499 7.8572066,-0.02193 0,0 -2.412197,-0.205731 -4.247402,0.154042 -1.393216,0.273125 -3.9858352,1.384641 -4.5167572,2.014121 -1.0188509,1.486193 -1.1027946,2.709125 -1.3834091,4.523189 l 1.4774813,1.33634 c 2.3617013,2.136092 3.429487,2.50864 4.035116,3.85133 0.277457,0.61512 0.922315,1.43711 1.433017,1.82664 0.573316,0.43729 3.243142,1.335765 3.091015,1.487895 0,0 -5.467146,-1.169004 -5.467146,-2.121114 0,-0.61896 -2.681457,-3.175178 -3.480034,-3.746394 l -2.252911,-1.61149 -2.450906,1.1923 c -1.1620909,0.573899 -3.438612,1.75743 -3.438612,1.75743 -0.166413,0.63636 0.472604,8.085247 0.982559,11.737987 0.46318603,3.31774 1.061978,6.95852 1.501287,9.12813 0.271498,1.84605 0.8623588,3.82609 1.153767,5.41115 0.3674199,1.72792 0.8580275,3.30046 1.3306,5.03989 0.885715,3.2653 4.001193,12.35696 4.850625,14.15521 0.515543,1.09141 1.621871,3.46803 2.458505,5.28139 l 1.521154,3.29702 1.354352,0.30503 c 0.744893,0.16776 2.071628,0.68101 2.948298,1.14055 3.460873,1.81925 5.687378,4.20541 7.847942,6.68709 3.694028,4.22901 7.998905,10.8925 13.647168,21.12434 2.97876,5.39604 6.79189,13.09709 6.79189,13.717 0,0.37913 4.55065,4.17223 7.66578,6.38965 7.18266,5.11278 15.84183,9.07506 24.87849,11.38394 3.63073,0.92765 9.20442,1.8963 11.90611,2.06915 l 0.66184,0.0423 z m -50.74563,-1.7967 c 0.58373,-0.16212 1.20932,-0.59335 1.5453,-1.06519 1.11648,-1.56796 1.11011,-5.73691 -0.0139,-9.11465 -1.26066,-3.78831 -8.296626,-17.14055 -12.884919,-24.4519 -4.568367,-7.2796 -7.312612,-10.34245 -10.766906,-12.01695 -2.45527,-1.19021 -4.282224,-1.58837 -6.60448,-1.43933 -7.232645,0.46416 -11.171143,7.7715 -8.477373,15.72859 1.86728,5.51573 7.772898,13.6814 14.681949,20.30065 8.831251,8.46083 17.931009,13.33339 22.520359,12.05878 z M 200.70975,51.360117 c 7.64709,-1.06362 16.84404,-6.52882 21.15999,-12.57414 1.16864,-1.6369 2.56649,-4.42761 2.84971,-5.68926 0.15113,-0.67324 0.11474,-0.69457 -1.46703,-0.85989 -0.8921,-0.0932 -12.46798,-0.16954 -25.72418,-0.16954 -13.34439,0 -26.89216,-0.12837 -30.353,-0.2876 -3.43796,-0.15819 -6.53459,-0.24748 -6.88141,-0.19844 -0.57184,0.0809 -0.43341,0.28782 1.48608,2.22179 4.13192,4.16306 11.64275,9.63482 17.33021,12.62533 7.85021,4.12771 15.24355,5.8158 21.59963,4.93175 z M 34.9869,47.695327 c 3.55846,-1.3751 5.08861,-3.46192 5.05704,-6.89679 -0.0348,-3.78292 -1.94513,-6.85252 -5.28925,-8.49882 -2.412884,-1.18786 -4.641009,-1.29525 -8.139592,-0.39232 -4.679939,1.20782 -7.071198,3.0206 -7.967989,6.04042 -1.218121,4.10186 0.298355,7.31072 4.334085,9.17091 2.490118,1.14777 3.603263,1.33779 7.300799,1.24633 2.520114,-0.0623 3.490567,-0.20047 4.704907,-0.66973 z"
       id="path24"
       sodipodi:nodetypes="ssssssssssssscssssssssssssscccsccsscscssscsssssssssssssssscsssssscssssssssscsssssssssscsscssscssssscssssssssssscssscssscsscsssssssssssssssssscssssccscscsssscssscscssscsccccscccsssssssscssscccscsscssccssssccssscsssssssssccsssssscccscccsscsccssssscscsssssssccsssssscsssscsssscs" />
  </g>
</svg>
